<?xml version="1.0" standalone="no"?>
<!DOCTYPE svg PUBLIC "-//W3C//DTD SVG 20010904//EN"
 "http://www.w3.org/TR/2001/REC-SVG-20010904/DTD/svg10.dtd">
<svg version="1.0" xmlns="http://www.w3.org/2000/svg"
 width="512.000000pt" height="512.000000pt" viewBox="0 0 512.000000 512.000000"
 preserveAspectRatio="xMidYMid meet">
<metadata>
Created by potrace 1.14, written by Peter Selinger 2001-2017
</metadata>
<g transform="translate(0.000000,512.000000) scale(0.100000,-0.100000)"
fill="#000000" stroke="none">
<path d="M2278 4385 c-2 -1 -39 -5 -83 -9 -212 -16 -417 -69 -667 -171 -417
-171 -763 -390 -1008 -638 -123 -126 -201 -232 -266 -362 -129 -261 -122 -441
28 -670 47 -72 177 -212 267 -289 41 -35 255 -191 358 -261 l72 -50 -52 -30
c-115 -67 -154 -93 -248 -162 -247 -182 -358 -353 -365 -563 -5 -146 34 -259
119 -344 54 -53 101 -75 196 -90 277 -44 556 71 764 317 60 71 123 200 151
308 l13 54 37 -73 c70 -138 142 -192 259 -193 102 -1 147 24 236 131 l21 25
25 -28 c33 -37 100 -67 150 -67 83 0 184 73 261 189 l29 44 6 -29 c8 -43 26
-70 62 -98 127 -97 463 -12 616 157 28 31 36 35 43 23 16 -29 96 -67 145 -71
78 -5 238 54 333 123 63 46 145 138 172 194 34 68 46 146 36 217 -5 30 -7 56
-5 57 12 12 127 24 211 23 83 -1 122 -6 191 -23 155 -39 249 -117 274 -225 12
-55 -14 -110 -70 -149 -71 -48 -84 -68 -84 -123 0 -42 5 -53 33 -81 28 -29 39
-33 85 -33 109 0 238 97 299 223 27 57 32 79 34 151 8 386 -381 660 -861 606
-42 -5 -129 -25 -222 -51 -35 -10 -63 58 -69 165 -5 74 -2 98 21 171 14 47 28
97 29 112 9 92 -95 161 -229 154 -131 -8 -204 -36 -236 -91 -10 -17 -27 -68
-39 -115 -14 -54 -48 -136 -94 -225 l-71 -140 -3 45 c-2 29 8 80 27 142 35
114 31 148 -24 197 -47 41 -102 54 -200 48 -88 -6 -134 -18 -174 -43 -38 -25
-48 -42 -67 -114 -9 -36 -48 -138 -87 -228 l-70 -163 -34 40 c-18 22 -49 46
-68 52 -36 13 -39 18 -50 84 -17 98 -105 190 -189 197 -28 3 -25 18 4 18 37 0
259 79 347 123 117 59 208 123 310 221 173 164 292 366 339 575 16 69 12 237
-7 310 -72 279 -343 461 -741 496 -73 7 -216 13 -220 10z m262 -489 c115 -16
210 -60 247 -114 18 -28 22 -45 19 -100 -4 -122 -72 -247 -203 -377 -164 -163
-415 -290 -653 -330 -19 -3 -43 -8 -53 -11 -10 -3 -59 -7 -109 -8 -154 -5
-256 27 -346 108 -29 25 -58 46 -65 47 -7 0 -19 2 -28 4 -9 1 -35 -6 -58 -16
-123 -55 -79 -235 87 -362 138 -106 244 -132 515 -131 l157 0 -60 -32 c-84
-45 -144 -95 -242 -201 -35 -38 -80 -66 -288 -176 -41 -22 -79 -43 -85 -48
-16 -15 -37 -10 -59 14 -18 19 -66 60 -136 114 -8 7 -62 49 -120 94 -206 163
-279 239 -325 343 -48 109 -29 238 56 383 33 54 181 213 244 261 172 130 273
192 484 300 293 149 524 221 786 245 52 4 178 0 235 -7z m950 -1777 c0 -8 -14
-28 -31 -45 -17 -16 -50 -55 -74 -86 -39 -53 -43 -55 -47 -33 -4 17 8 45 39
92 24 37 54 85 66 106 l22 39 12 -29 c7 -15 12 -35 13 -44z m-1461 -105 c-17
-43 -36 -96 -43 -116 -15 -49 -29 -61 -21 -20 10 60 80 230 90 220 3 -2 -9
-40 -26 -84z m850 -41 l21 -42 -90 -110 c-49 -60 -94 -112 -99 -115 -5 -3 12
36 37 87 26 51 61 122 77 159 17 36 31 66 31 65 1 -1 11 -21 23 -44z m-1685
-355 c-11 -110 -61 -214 -144 -297 -62 -62 -155 -116 -213 -124 -47 -6 -55 8
-37 66 38 120 129 219 323 350 39 26 72 47 73 47 1 0 0 -19 -2 -42z"/>
</g>
</svg>
